<svg width="21" height="20" viewBox="0 0 21 20" fill="none" xmlns="http://www.w3.org/2000/svg">
<g clip-path="url(#clip0_222_19)">
<path d="M8.57212 9.301C8.57212 9.301 10.4641 9.154 10.4641 6.842C10.4641 4.527 8.91612 3.401 6.95412 3.401H0.500122V16.327H6.95412C6.95412 16.327 10.8951 16.456 10.8951 12.511C10.8941 12.51 11.0661 9.301 8.57212 9.301ZM3.34412 5.697H6.95412C6.95412 5.697 7.83212 5.697 7.83212 7.041C7.83212 8.387 7.31612 8.582 6.73012 8.582H3.34412V5.697ZM6.77112 14.029H3.34412V10.574H6.95412C6.95412 10.574 8.26212 10.556 8.26212 12.349C8.26212 13.861 7.28512 14.018 6.77112 14.029ZM16.1491 6.688C11.3781 6.688 11.3821 11.655 11.3821 11.655C11.3821 11.655 11.0561 16.596 16.1491 16.596C16.1491 16.596 20.3921 16.85 20.3921 13.159H18.2101C18.2101 13.159 18.2821 14.55 16.2221 14.55C16.2221 14.55 14.0381 14.702 14.0381 12.3H20.4611C20.4621 12.299 21.1701 6.688 16.1491 6.688ZM18.0901 10.574H14.0161C14.0161 10.574 14.2821 8.582 16.1981 8.582C18.1141 8.582 18.0901 10.574 18.0901 10.574ZM18.5971 4.16H13.4801V5.754H18.5971V4.16Z" fill="white"/>
</g>
<defs>
<clipPath id="clip0_222_19">
<rect width="20" height="20" fill="white" transform="translate(0.500122)"/>
</clipPath>
</defs>
</svg>
