<svg width="1091" height="568" viewBox="0 0 1091 568" fill="none" xmlns="http://www.w3.org/2000/svg">
<line x1="182.734" y1="0.560791" x2="182.734" y2="567.35" stroke="white" stroke-opacity="0.2"/>
<path d="M727 323.561L727 567.561" stroke="url(#paint0_linear_15_22)" stroke-opacity="0.2"/>
<path d="M727 0.560791L727 80.5608" stroke="url(#paint1_linear_15_22)" stroke-opacity="0.2"/>
<path d="M545 323.561L545 567.561" stroke="url(#paint2_linear_15_22)" stroke-opacity="0.2"/>
<path d="M545 0.560791L545 80.5608" stroke="url(#paint3_linear_15_22)" stroke-opacity="0.2"/>
<path d="M364 323.561L364 567.561" stroke="url(#paint4_linear_15_22)"/>
<path d="M364 0.560791L364 80.5608" stroke="url(#paint5_linear_15_22)"/>
<line x1="908.947" y1="0.560791" x2="908.947" y2="567.35" stroke="url(#paint6_linear_15_22)"/>
<line x1="1090.5" y1="0.560791" x2="1090.5" y2="567.35" stroke="white" stroke-opacity="0.2"/>
<line x1="0.500061" y1="0.560791" x2="0.500036" y2="567.35" stroke="white" stroke-opacity="0.2"/>
<line x1="1" y1="404.5" x2="1090" y2="404.5" stroke="url(#paint7_linear_15_22)"/>
<line x1="1" y1="323.5" x2="1090" y2="323.5" stroke="white" stroke-opacity="0.2"/>
<line x1="1" y1="242.061" x2="183" y2="242.061" stroke="url(#paint8_linear_15_22)"/>
<line x1="908" y1="242.5" x2="1090" y2="242.5" stroke="white" stroke-opacity="0.2"/>
<line x1="910" y1="162.5" x2="1090" y2="162.5" stroke="white" stroke-opacity="0.2"/>
<line x1="1" y1="162.061" x2="183" y2="162.061" stroke="white" stroke-opacity="0.2"/>
<line x1="1" y1="80.5" x2="1090" y2="80.5" stroke="url(#paint9_linear_15_22)"/>
<line x1="1" y1="0.5" x2="1090" y2="0.5" stroke="white" stroke-opacity="0.2"/>
<line x1="1" y1="484.5" x2="1090" y2="484.5" stroke="white" stroke-opacity="0.2"/>
<defs>
<linearGradient id="paint0_linear_15_22" x1="727.197" y1="256.487" x2="727.59" y2="256.487" gradientUnits="userSpaceOnUse">
<stop stop-color="white"/>
<stop offset="1" stop-color="white" stop-opacity="0"/>
</linearGradient>
<linearGradient id="paint1_linear_15_22" x1="727.005" y1="253.874" x2="727.015" y2="253.874" gradientUnits="userSpaceOnUse">
<stop stop-color="white"/>
<stop offset="1" stop-color="white" stop-opacity="0"/>
</linearGradient>
<linearGradient id="paint2_linear_15_22" x1="545.197" y1="256.487" x2="545.59" y2="256.487" gradientUnits="userSpaceOnUse">
<stop stop-color="white"/>
<stop offset="1" stop-color="white" stop-opacity="0"/>
</linearGradient>
<linearGradient id="paint3_linear_15_22" x1="545.005" y1="253.874" x2="545.014" y2="253.874" gradientUnits="userSpaceOnUse">
<stop stop-color="white"/>
<stop offset="1" stop-color="white" stop-opacity="0"/>
</linearGradient>
<linearGradient id="paint4_linear_15_22" x1="364" y1="323.561" x2="364" y2="567.561" gradientUnits="userSpaceOnUse">
<stop stop-color="#7A87FB"/>
<stop offset="1" stop-color="#FFD49C"/>
</linearGradient>
<linearGradient id="paint5_linear_15_22" x1="364" y1="0.560791" x2="364" y2="80.5608" gradientUnits="userSpaceOnUse">
<stop stop-color="#7A87FB"/>
<stop offset="1" stop-color="#FFD49C"/>
</linearGradient>
<linearGradient id="paint6_linear_15_22" x1="907.947" y1="0.560791" x2="907.947" y2="567.35" gradientUnits="userSpaceOnUse">
<stop stop-color="#7A87FB"/>
<stop offset="1" stop-color="#FFD49C"/>
</linearGradient>
<linearGradient id="paint7_linear_15_22" x1="1" y1="405.5" x2="1090" y2="405.5" gradientUnits="userSpaceOnUse">
<stop stop-color="#7A87FB"/>
<stop offset="1" stop-color="#FFD49C"/>
</linearGradient>
<linearGradient id="paint8_linear_15_22" x1="1" y1="243.061" x2="183" y2="243.061" gradientUnits="userSpaceOnUse">
<stop stop-color="#7A87FB"/>
<stop offset="1" stop-color="#FFD49C"/>
</linearGradient>
<linearGradient id="paint9_linear_15_22" x1="1" y1="81.5" x2="1090" y2="81.5" gradientUnits="userSpaceOnUse">
<stop stop-color="#7A87FB"/>
<stop offset="1" stop-color="#FFD49C"/>
</linearGradient>
</defs>
</svg>
