<svg width="60" height="60" viewBox="0 0 60 60" fill="none" xmlns="http://www.w3.org/2000/svg">
<path d="M5.26931 60H4C1.79086 60 0 58.2091 0 56V4C0 1.79086 1.79086 0 4 0H56C58.2091 0 60 1.79086 60 4V4.625C60 6.83414 58.2091 8.625 56 8.625H19.7172C16.0483 8.625 14.3151 13.1521 17.046 15.6023L21.7829 19.8523C22.5168 20.5108 23.4681 20.875 24.4542 20.875H56.2222C58.3086 20.875 60 22.5664 60 24.6528C60 27.2608 57.8858 29.375 55.2778 29.375H39.9566C36.431 29.375 34.6296 33.6051 37.0727 36.1469L53.4909 53.2281C55.9341 55.7699 54.1327 60 50.6071 60H49.8874C48.8235 60 47.8035 59.5762 47.0529 58.8223L16.1038 27.7392C13.5865 25.2109 9.26931 26.9937 9.26931 30.5615V56C9.26931 58.2091 7.47845 60 5.26931 60Z" fill="white"/>
<path d="M16.6597 56V48.9951C16.6597 45.3683 21.0992 43.6136 23.5788 46.2604L30.1414 53.2652C32.5351 55.8202 30.7234 60 27.2223 60H20.6597C18.4506 60 16.6597 58.2091 16.6597 56Z" fill="white"/>
</svg>
