<svg width="75" height="74" viewBox="0 0 75 74" fill="none" xmlns="http://www.w3.org/2000/svg">
<g clip-path="url(#clip0_30_1695)">
<path d="M5.5034 37C5.5034 49.5643 12.8301 60.422 23.4551 65.5675L8.26111 24.0822C6.44002 28.1468 5.5003 32.5487 5.5034 37ZM58.8584 35.3981C58.8584 31.4755 57.4443 28.7587 56.2317 26.6444C54.617 24.0297 53.1036 21.8155 53.1036 19.2008C53.1036 16.2829 55.3243 13.5667 58.4524 13.5667C58.5937 13.5667 58.7273 13.5841 58.8651 13.5922C53.1982 8.4183 45.6481 5.25951 37.3558 5.25951C26.2279 5.25951 16.4379 10.9491 10.7425 19.5668C11.4897 19.5891 12.1938 19.6045 12.7923 19.6045C16.1237 19.6045 21.2809 19.202 21.2809 19.202C22.9982 19.101 23.2005 21.6141 21.4853 21.8167C21.4853 21.8167 19.7597 22.0189 17.8394 22.119L29.4393 56.5012L36.4099 35.668L31.4472 22.1182C29.732 22.018 28.1071 21.8158 28.1071 21.8158C26.3907 21.7154 26.5919 19.1001 28.3083 19.2011C28.3083 19.2011 33.5686 19.6039 36.6982 19.6039C40.0296 19.6039 45.1871 19.2011 45.1871 19.2011C46.9053 19.1001 47.1074 21.6132 45.3916 21.8158C45.3916 21.8158 43.6624 22.018 41.7457 22.1182L53.2567 56.2397L56.4338 45.6597C57.8106 41.2694 58.8587 38.1161 58.8587 35.3984M37.9149 39.7769L28.3581 67.4509C31.28 68.3083 34.3101 68.7438 37.356 68.744C41.0651 68.744 44.6222 68.105 47.9335 66.9448C47.8451 66.8059 47.7692 66.6596 47.7067 66.5074L37.9149 39.7769ZM65.3051 21.7717C65.4499 22.8536 65.5216 23.944 65.5197 25.0355C65.5197 28.2567 64.916 31.8775 63.0977 36.4048L53.3683 64.4378C62.8377 58.9348 69.2069 48.7112 69.2069 37.0012C69.2075 31.4825 67.7929 26.2929 65.3048 21.7717M37.3558 0C16.8825 0 0.225586 16.5981 0.225586 37C0.225586 57.4046 16.8825 74.002 37.3558 74.002C57.8281 74.002 74.4874 57.4046 74.4874 37C74.4871 16.5981 57.8281 0 37.3558 0ZM37.356 72.3061C17.822 72.3061 1.92826 56.4678 1.92826 37C1.92826 17.5336 17.8211 1.69649 37.356 1.69649C56.8895 1.69649 72.7818 17.5336 72.7818 37C72.7818 56.4678 56.8895 72.3061 37.356 72.3061Z" fill="white"/>
</g>
<defs>
<clipPath id="clip0_30_1695">
<rect width="75" height="74" fill="white"/>
</clipPath>
</defs>
</svg>
