<svg width="49" height="81" viewBox="0 0 49 81" fill="none" xmlns="http://www.w3.org/2000/svg">
<g clip-path="url(#clip0_30_1686)">
<path d="M12.3111 81C19.0395 81 24.5002 74.952 24.5002 67.5V54H12.3111C5.58277 54 0.12207 60.048 0.12207 67.5C0.12207 74.952 5.58277 81 12.3111 81Z" fill="#0ACF83"/>
<path d="M0.12207 40.5C0.12207 33.048 5.58277 27 12.3111 27H24.5002V54H12.3111C5.58277 54 0.12207 47.952 0.12207 40.5Z" fill="#A259FF"/>
<path d="M0.12207 13.5C0.12207 6.048 5.58277 0 12.3111 0H24.5002V27H12.3111C5.58277 27 0.12207 20.952 0.12207 13.5Z" fill="#F24E1E"/>
<path d="M24.5 0H36.6891C43.4174 0 48.8781 6.048 48.8781 13.5C48.8781 20.952 43.4174 27 36.6891 27H24.5V0Z" fill="#FF7262"/>
<path d="M48.8781 40.5C48.8781 47.952 43.4174 54 36.6891 54C29.9607 54 24.5 47.952 24.5 40.5C24.5 33.048 29.9607 27 36.6891 27C43.4174 27 48.8781 33.048 48.8781 40.5Z" fill="#1ABCFE"/>
</g>
<defs>
<clipPath id="clip0_30_1686">
<rect width="49" height="81" fill="white"/>
</clipPath>
</defs>
</svg>
