<svg width="76" height="74" viewBox="0 0 76 74" fill="none" xmlns="http://www.w3.org/2000/svg">
<g clip-path="url(#clip0_30_1692)">
<path d="M63.2348 0H12.7649C5.83719 0 0.221191 5.63226 0.221191 12.58V61.3016C0.221191 68.2494 5.83719 73.8816 12.7649 73.8816H63.2348C70.1625 73.8816 75.7785 68.2494 75.7785 61.3016V12.58C75.7785 5.63226 70.1625 0 63.2348 0Z" fill="#330000"/>
<path d="M36.8354 44.3378H25.1269L22.7445 51.7594C22.7121 51.8948 22.6336 52.0146 22.5226 52.0981C22.4115 52.1817 22.2749 52.2237 22.1362 52.217H16.2059C15.8678 52.217 15.7496 52.0306 15.8511 51.6576L25.9885 22.3779C26.0898 22.073 26.1911 21.7257 26.2925 21.3359C26.4253 20.6575 26.4932 19.9684 26.4952 19.2773C26.4883 19.2289 26.4927 19.1796 26.5081 19.1333C26.5235 19.087 26.5494 19.0448 26.5839 19.0103C26.6183 18.9757 26.6602 18.9497 26.7064 18.9342C26.7526 18.9188 26.8018 18.9143 26.85 18.9212H34.9092C35.1454 18.9212 35.2805 19.006 35.3148 19.1757L46.8204 51.7085C46.9218 52.0479 46.8204 52.2174 46.5164 52.217H39.927C39.8139 52.2294 39.7001 52.2002 39.6069 52.1347C39.5137 52.0693 39.4473 51.9721 39.4202 51.8612L36.8354 44.3378ZM26.9515 37.933H34.96L34.8458 37.555L34.6625 36.9565L34.5317 36.5361L34.3231 35.8743L33.8795 34.481L33.4893 33.2458L32.4761 30.0283C32.2239 29.2285 31.9818 28.4254 31.75 27.6194L31.5646 26.9653L31.348 26.1918L31.0174 24.993L30.9555 24.7672H30.905C30.6513 25.9873 30.3425 27.1952 29.9794 28.3873L29.2274 30.8133L28.8136 32.1536L28.396 33.5104C28.3206 33.7555 28.2453 33.9978 28.1702 34.2374L27.9459 34.9472L27.7227 35.6404L27.5008 36.3165L27.28 36.9757C27.2068 37.1928 27.1337 37.4069 27.0607 37.618L26.9515 37.933ZM53.6625 24.3096C53.1455 24.3303 52.6301 24.2414 52.1497 24.0487C51.6693 23.856 51.2349 23.5638 50.8748 23.1913C50.516 22.8023 50.2372 22.3462 50.0545 21.8489C49.8718 21.3517 49.7888 20.8232 49.8103 20.2937C49.7919 19.7695 49.884 19.2474 50.0805 18.7613C50.277 18.2752 50.5735 17.8362 50.9507 17.4729C51.6782 16.7724 52.6472 16.3804 53.6557 16.3785L53.7637 16.3797C54.9803 16.3797 55.935 16.744 56.6278 17.4726C56.9774 17.8512 57.2491 18.2953 57.4274 18.7794C57.6057 19.2635 57.687 19.7781 57.6667 20.2937C57.6882 20.8254 57.6028 21.3559 57.4156 21.8537C57.2284 22.3516 56.9432 22.8065 56.5771 23.1916C56.2075 23.5568 55.7689 23.8442 55.287 24.0369C54.805 24.2295 54.2895 24.3235 53.7708 24.3134L53.6625 24.3096ZM50.165 51.7085V27.4105C50.1648 27.1054 50.3 26.9528 50.5706 26.9528H56.8052C57.0754 26.9528 57.2105 27.1054 57.2107 27.4105V51.7085C57.2107 52.0479 57.0756 52.2174 56.8052 52.217H50.6213C50.3333 52.217 50.1816 52.0649 50.1665 51.7606L50.165 51.7085Z" fill="#FF9A00"/>
</g>
<defs>
<clipPath id="clip0_30_1692">
<rect width="76" height="74" fill="white"/>
</clipPath>
</defs>
</svg>
