<svg width="21" height="20" viewBox="0 0 21 20" fill="none" xmlns="http://www.w3.org/2000/svg">
<g clip-path="url(#clip0_222_11)">
<path d="M17.541 17.0412H14.5777V12.4004C14.5777 11.2937 14.5579 9.86911 13.0364 9.86911C11.493 9.86911 11.2568 11.0749 11.2568 12.3198V17.0409H8.29351V7.49747H11.1383V8.80169H11.1781C11.4628 8.31491 11.8742 7.91446 12.3685 7.64299C12.8628 7.37151 13.4215 7.23916 13.985 7.26005C16.9885 7.26005 17.5423 9.23567 17.5423 11.8058L17.541 17.0412ZM4.94976 6.19302C4 6.19317 3.22992 5.42333 3.22976 4.47356C3.22961 3.5238 3.99937 2.75372 4.94914 2.75356C5.8989 2.75333 6.66898 3.52317 6.66914 4.47294C6.66922 4.92904 6.48812 5.36649 6.16568 5.68906C5.84323 6.01164 5.40586 6.19291 4.94976 6.19302ZM6.43148 17.0413H3.465V7.49747H6.4314L6.43148 17.0413ZM19.0184 0.00145562H1.97593C1.17046 -0.00760688 0.509918 0.637627 0.500074 1.4431V18.5566C0.509606 19.3625 1.17007 20.0083 1.97586 19.9999H19.0184C19.8259 20.0099 20.4889 19.364 20.5001 18.5566V1.44177C20.4886 0.634737 19.8255 -0.0104194 19.0184 0.000127492" fill="white"/>
</g>
<defs>
<clipPath id="clip0_222_11">
<rect width="20" height="20" fill="white" transform="translate(0.500122)"/>
</clipPath>
</defs>
</svg>
