<svg width="21" height="20" viewBox="0 0 21 20" fill="none" xmlns="http://www.w3.org/2000/svg">
<path d="M10.501 7.50002C9.83791 7.50002 9.20203 7.76341 8.73319 8.23225C8.26434 8.70109 8.00095 9.33698 8.00095 10C8.00095 10.6631 8.26434 11.2989 8.73319 11.7678C9.20203 12.2366 9.83791 12.5 10.501 12.5C11.164 12.5 11.7999 12.2366 12.2687 11.7678C12.7376 11.2989 13.001 10.6631 13.001 10C13.001 9.33698 12.7376 8.70109 12.2687 8.23225C11.7999 7.76341 11.164 7.50002 10.501 7.50002ZM10.501 5.83335C11.606 5.83335 12.6658 6.27234 13.4472 7.05374C14.2286 7.83514 14.6676 8.89495 14.6676 10C14.6676 11.1051 14.2286 12.1649 13.4472 12.9463C12.6658 13.7277 11.606 14.1667 10.501 14.1667C9.39588 14.1667 8.33608 13.7277 7.55467 12.9463C6.77327 12.1649 6.33429 11.1051 6.33429 10C6.33429 8.89495 6.77327 7.83514 7.55467 7.05374C8.33608 6.27234 9.39588 5.83335 10.501 5.83335ZM15.9176 5.62502C15.9176 5.90129 15.8079 6.16624 15.6125 6.36159C15.4172 6.55694 15.1522 6.66669 14.876 6.66669C14.5997 6.66669 14.3347 6.55694 14.1394 6.36159C13.944 6.16624 13.8343 5.90129 13.8343 5.62502C13.8343 5.34875 13.944 5.0838 14.1394 4.88845C14.3347 4.6931 14.5997 4.58335 14.876 4.58335C15.1522 4.58335 15.4172 4.6931 15.6125 4.88845C15.8079 5.0838 15.9176 5.34875 15.9176 5.62502ZM10.501 3.33335C8.43929 3.33335 8.10262 3.33919 7.14345 3.38169C6.49012 3.41252 6.05179 3.50002 5.64512 3.65835C5.3048 3.7833 4.99713 3.98357 4.74512 4.24419C4.48429 4.49619 4.28375 4.80384 4.15845 5.14419C4.00012 5.55252 3.91262 5.99002 3.88262 6.64252C3.83929 7.56252 3.83345 7.88419 3.83345 10C3.83345 12.0625 3.83929 12.3984 3.88179 13.3575C3.91262 14.01 4.00012 14.4492 4.15762 14.855C4.29929 15.2175 4.46595 15.4784 4.74262 15.755C5.02345 16.035 5.28429 16.2025 5.64262 16.3409C6.05429 16.5 6.49262 16.5884 7.14262 16.6184C8.06262 16.6617 8.38429 16.6667 10.5001 16.6667C12.5626 16.6667 12.8985 16.6609 13.8576 16.6184C14.5093 16.5875 14.9476 16.5 15.3551 16.3425C15.6951 16.217 16.0027 16.0168 16.2551 15.7567C16.536 15.4767 16.7035 15.2159 16.8418 14.8567C17.0001 14.4467 17.0885 14.0084 17.1185 13.3567C17.1618 12.4375 17.1668 12.115 17.1668 10C17.1668 7.93835 17.161 7.60169 17.1185 6.64252C17.0876 5.99085 16.9993 5.55085 16.8418 5.14419C16.7162 4.8042 16.516 4.49667 16.256 4.24419C16.0041 3.98323 15.6964 3.78266 15.356 3.65752C14.9476 3.49919 14.5093 3.41169 13.8576 3.38169C12.9385 3.33835 12.6168 3.33335 10.5001 3.33335M10.5001 1.66669C12.7643 1.66669 13.0468 1.67502 13.936 1.71669C14.8226 1.75835 15.4276 1.89752 15.9585 2.10419C16.5085 2.31585 16.9718 2.60252 17.4351 3.06502C17.8589 3.4816 18.1867 3.98551 18.396 4.54169C18.6018 5.07252 18.7418 5.67752 18.7835 6.56502C18.8226 7.45335 18.8335 7.73585 18.8335 10C18.8335 12.2642 18.8251 12.5467 18.7835 13.435C18.7418 14.3225 18.6018 14.9267 18.396 15.4584C18.1873 16.0148 17.8594 16.5189 17.4351 16.935C17.0184 17.3586 16.5145 17.6865 15.9585 17.8959C15.4276 18.1017 14.8226 18.2417 13.936 18.2834C13.0468 18.3225 12.7643 18.3334 10.5001 18.3334C8.23595 18.3334 7.95345 18.325 7.06429 18.2834C6.17762 18.2417 5.57345 18.1017 5.04179 17.8959C4.48539 17.6871 3.98139 17.3591 3.56512 16.935C3.14131 16.5185 2.81342 16.0146 2.60429 15.4584C2.39762 14.9275 2.25845 14.3225 2.21679 13.435C2.17679 12.5467 2.16679 12.2642 2.16679 10C2.16679 7.73585 2.17512 7.45335 2.21679 6.56502C2.25845 5.67752 2.39762 5.07335 2.60429 4.54169C2.81282 3.98517 3.14079 3.48112 3.56512 3.06502C3.98151 2.64105 4.48548 2.31313 5.04179 2.10419C5.57262 1.89752 6.17679 1.75835 7.06429 1.71669C7.95429 1.67752 8.23679 1.66669 10.501 1.66669" fill="white"/>
</svg>
